<svg width="117" height="97" viewBox="0 0 117 97" fill="none" xmlns="http://www.w3.org/2000/svg">
<path fill-rule="evenodd" clip-rule="evenodd" d="M59.3763 51.3755C58.519 51.3755 57.699 51.1519 56.879 50.9283C55.7608 50.6301 54.5681 50.4437 53.4872 49.9964C53.9345 49.9592 54.4935 50.0337 55.5372 49.7355C57.2145 50.2574 58.4445 50.4437 60.7927 49.9592C62.2463 49.661 63.6627 49.6237 65.1536 49.4746C65.6381 49.4374 66.4954 49.5492 66.8681 49.6237C64.5572 49.8474 62.6936 51.4501 59.3763 51.3755ZM57.5499 48.9901C58.7054 49.2137 59.8608 49.3628 61.0163 49.4001C58.7799 49.8846 57.9599 50.0337 56.0217 49.661C56.5436 49.4746 57.0281 49.251 57.5499 48.9901ZM59.8236 47.7228C60.8672 48.2446 61.389 48.5055 62.2836 48.7664C60.8299 48.8037 59.5999 48.8037 58.2581 48.6174C58.7799 48.3192 59.1899 48.0955 59.8236 47.7228ZM61.3517 46.9028C63.5508 46.6046 65.3027 47.3128 66.6817 48.7292C65.8245 48.5801 65.1536 48.6174 65.0045 48.6174C62.2463 48.3192 62.619 48.5428 60.1217 47.4992C60.569 47.3128 60.9417 47.0892 61.3517 46.9028ZM105.52 82.7965C108.912 83.132 111.931 81.492 112.229 81.1565C112.155 81.231 110.365 82.9456 99.1091 80.672C92.5491 79.3301 86.4736 76.1992 83.7527 74.671C83.3427 74.3728 81.2927 72.9192 80.1 72.1365C78.7581 71.2419 77.8263 70.4965 76.9318 68.6701C76.3727 67.4774 76.6336 63.6383 76.6336 62.2965C76.6709 55.8855 73.4654 53.5746 74.2109 51.0028C74.6954 49.251 78.2736 49.0274 80.0627 48.0955C80.249 47.9837 83.9763 46.7537 84.7218 46.4555C87.1445 45.4492 89.12 43.8464 90.3872 41.5355C91.0954 40.231 91.4309 39.411 91.58 37.9573C93.22 36.4292 95.6427 35.6837 97.6182 34.901C100.19 33.8946 106.265 31.5837 107.421 30.8755C109.62 29.5337 110.44 28.2664 110.999 26.291C111.372 24.9491 111.297 23.1973 111.335 21.8182C111.372 20.4391 111.26 19.06 110.701 17.7928C110.179 16.6 109.247 15.6309 108.353 14.7364C107.607 13.9909 106.787 13.2082 105.818 12.7237C106.526 13.2455 107.123 13.9537 107.719 14.6246C108.539 15.5564 109.434 16.6 109.955 17.7555C110.515 18.9855 110.589 20.3273 110.589 21.6691C110.589 23.0482 110.589 24.5764 110.291 25.9182C109.918 27.5582 108.949 28.751 107.682 29.6828C107.794 29.3473 107.868 28.9746 107.905 28.6019C107.98 27.7073 107.868 26.7382 107.57 25.8437C107.16 24.6882 108.39 23.2346 109.471 22.8991C108.465 23.0855 107.458 24.0173 107.197 25.061C106.862 24.39 106.452 23.7937 105.93 23.3091C106.862 24.5764 107.533 26.1791 107.495 27.7446C107.495 28.4901 107.533 29.3473 107.085 29.981C106.601 30.6891 104.514 31.621 103.06 32.0682C104.29 30.9128 104.588 28.7882 103.955 27.7073C103.955 26.44 104.141 25.5455 105.483 25.1728C104.29 25.3964 103.805 26.0673 103.619 27.26C103.097 26.6264 102.315 26.03 101.83 26.6637C102.538 26.1791 103.284 27.5582 103.507 28.2291C103.656 29.0864 103.433 30.3164 102.948 31.0246C101.942 32.5528 99.37 33.4101 97.73 33.8946C95.4564 34.5282 93.9282 34.9755 91.6545 36.1682C91.6545 36.0937 91.7291 35.6464 91.7291 35.6092C92.5863 34.4164 94.0773 33.4846 95.2327 32.6273C95.3073 32.5528 97.3573 31.2855 97.6927 29.7573C97.9536 28.5273 98.9227 27.521 99.8545 26.701C102.277 24.6137 106.303 23.4209 106.675 19.2837C107.607 18.7246 108.8 18.9855 109.396 19.6937C109.024 18.6873 107.682 18.3519 106.713 18.65C106.675 16.9355 106.005 15.0718 104.551 13.5064C104.29 12.6491 104.402 11.5309 104.7 10.6737C104.476 10.86 104.327 11.1209 104.178 11.4191C103.209 9.36911 100.041 7.76638 97.7673 7.72911C99.2954 7.84093 100.712 8.51184 101.942 9.40638C100.824 9.44366 99.5564 9.22002 98.6618 8.66093C99.6309 9.44366 101.196 9.77911 102.426 9.81638C103.097 10.3755 103.694 11.0091 103.955 11.8664C103.88 12.1646 103.88 12.5 103.843 12.8355C101.942 11.1582 99.7054 10.3755 96.4627 8.88456C96.3882 8.51184 96.2391 8.25093 96.2391 7.84093C96.2391 6.49911 99.0718 5.2691 100.115 4.97092C98.2891 5.34365 97.1336 5.94001 96.5 6.49911C96.5745 5.75365 96.3136 5.12001 95.7173 4.56092C94.8973 3.81546 93.8536 3.36819 92.8472 2.88365C91.0209 1.9891 89.0082 2.58546 87.07 2.62274C88.8963 2.66001 90.76 2.21274 92.4745 2.95819C93.4809 3.40547 94.5618 3.96456 95.3818 4.71001C96.0527 5.34365 96.3509 6.05183 96.0527 6.94638C95.7173 7.39365 95.6054 7.91547 95.6054 8.47456C93.5554 7.50547 92.9963 7.02093 90.2382 5.2691C90.3872 5.00819 91.0954 4.97092 91.3936 5.04547C91.8782 5.15729 92.3254 5.49274 92.6609 5.86547C91.8782 4.59819 90.4618 4.48638 89.9772 5.08274C86.4736 2.84637 82.7463 0.908188 77.9009 1.13182C77.6772 1.13182 77.4536 1.1691 77.2672 1.1691C75.2918 0.982734 73.5399 -0.13545 71.5272 0.0136409C69.7381 0.125459 68.1354 1.02001 66.5327 1.69092C68.1354 1.09455 69.7754 0.274551 71.4899 0.237278C73.1299 0.200006 74.5836 0.982734 76.1118 1.39273C74.5836 1.80274 73.2418 2.69728 72.9063 4.37456C73.6518 2.73455 75.1427 2.06365 76.8572 1.84001C79.5409 1.50455 82.3363 2.06364 84.8336 3.10728C87.4427 4.22547 89.7536 5.90274 92.1018 7.43093C93.3318 8.21365 94.5245 8.99638 95.8664 9.59275C97.1336 10.1891 98.4382 10.7109 99.6682 11.3073C101.681 12.2391 103.768 13.4691 104.886 15.4818C106.042 17.6064 106.191 20.0291 104.588 21.9673C103.135 23.7191 100.973 24.3155 99.3327 25.8064C98.9227 25.471 98.9227 24.9119 98.96 24.39C99.0345 23.16 99.6309 22.3028 99.8545 21.11C99.9664 20.5882 99.8918 20.0664 99.8545 19.5446C99.8173 19.0973 99.8545 18.6128 99.78 18.1655C99.5564 15.4446 99.5191 13.73 101.345 13.3573C99.8918 13.5437 99.5191 14.6618 99.4073 16.0782C98.9227 13.6182 98.0655 11.7918 96.0154 10.3009C94.9345 9.5182 93.5554 9.25729 92.2509 9.1082C91.7663 9.07093 91.3191 8.99638 90.8345 8.99638C89.8654 8.92184 87.48 8.02729 88.1509 6.6482C87.5545 7.61729 88.5982 8.51184 89.6418 8.99638C89.1945 8.95911 88.7845 8.92184 88.3372 8.84729C87.7036 8.77275 85.84 8.77275 85.4672 8.21365C85.9891 8.92184 87.6291 9.03366 88.2254 9.18275C88.8591 9.33184 88.9709 9.33184 89.6418 9.36911C90.1636 9.40638 90.9091 9.29456 91.4309 9.40638C92.6982 9.63002 94.3009 9.81638 95.3818 10.5618C96.3882 11.27 97.3573 12.1273 97.8791 13.2082C98.4009 14.4009 99.3327 17.4573 99.2954 19.0228C99.2954 19.2091 99.37 20.4391 99.3327 20.6255C99.1464 21.8928 98.1027 23.2346 98.0655 24.5391C98.0282 25.2846 98.0282 26.1791 98.55 26.5519C97.73 27.4464 97.4691 28.1919 96.8727 29.2355C96.7609 28.4901 96.5373 27.7819 96.09 27.1855C95.9036 26.701 95.68 26.1791 95.7545 25.6573C95.8663 25.061 96.1273 24.651 96.5745 24.241C97.3945 23.4582 98.0654 22.8246 98.1773 21.6691C98.1027 22.1909 97.9164 22.601 97.5809 23.0482C97.2454 23.4955 96.6864 23.831 96.2764 24.2037C95.4936 24.8746 95.3073 25.6573 95.4564 26.5519C94.4127 25.6573 92.9591 25.1728 91.6545 24.9491C92.9591 25.2473 94.7854 26.2164 95.7545 27.26C96.0527 27.7819 96.5745 28.9001 96.5745 29.7201C96.5373 30.801 95.2327 31.3973 94.3009 32.0682C93.4809 32.6646 92.4373 33.4101 91.6545 34.2673C91.6545 34.2301 91.6545 34.1928 91.6173 34.1555C92.1391 29.9437 88.3 25.21 91.58 21.52C93.22 19.6937 95.9409 17.6437 94.45 14.8855C94.0027 14.0655 93.3318 13.6182 92.5491 13.3946C91.8782 12.8728 91.2445 12.2018 91.2818 11.27C91.1327 12.0155 91.4309 12.6864 91.8782 13.2828C90.5736 13.0591 89.0827 13.1337 87.9272 12.7609C89.0827 13.2455 90.8718 13.2455 92.2136 13.6182C92.9218 13.8418 93.6673 14.2146 94.0773 14.9228C95.4936 17.5691 92.6982 19.4328 91.1327 21.1473C88.1509 24.3528 90.0518 28.08 90.7227 31.8073C89.7909 30.0555 88.3745 28.6391 86.9209 27.2228C85.9145 26.2537 84.9081 25.2473 84.3491 23.98C83.7527 22.7128 83.7527 21.3709 84.2372 20.0291C84.4981 19.2837 84.9081 18.5382 85.2063 17.7928C85.2436 17.7555 85.2436 17.7182 85.2809 17.7182C86.66 16.9728 88.0763 16.6373 89.6045 16.4137C88.1509 16.5255 86.6227 16.7118 85.3181 17.42C85.4672 17.01 85.5418 16.6 85.5791 16.19C85.6536 14.9228 85.0572 13.6555 84.2 12.7609C83.79 12.3137 83.2681 11.9409 82.709 11.68C82.5972 11.6428 81.6281 11.3818 81.5536 11.3446C80.6963 10.86 80.0254 10.1518 79.3918 9.40638C79.3545 8.77275 79.28 8.02729 79.5036 7.43093C79.8018 6.68547 80.659 6.42456 81.3672 6.27547C82.8581 5.90274 84.3863 6.05183 85.84 6.38729C84.2745 5.94001 82.6345 5.75365 81.0318 6.12638C80.8827 6.16365 80.7336 6.20092 80.6218 6.2382C81.2181 5.41819 81.2181 4.30001 79.9881 3.92728C80.6218 4.18819 81.069 4.63547 80.8454 5.34365C80.6218 6.01456 79.7272 6.42456 79.2427 7.28183C79.0563 7.61729 79.019 8.40002 79.019 8.81002C78.3854 8.02729 77.6027 7.39365 76.8572 6.76002C75.7763 5.86547 74.3972 5.08274 72.9809 4.97092C71.0054 4.82183 66.2718 5.45547 65.0418 3.51728C65.3399 4.30001 66.1599 4.71001 67.0172 4.97092C66.3463 5.79092 64.6318 5.2691 63.8117 5.00819C64.8181 5.49274 66.6445 6.20092 67.4645 5.12001C69.9618 5.6791 72.0118 5.23183 73.4654 5.53001C74.1736 5.6791 74.8818 6.01456 75.5154 6.42456C76.1863 6.87183 76.82 7.35638 77.379 7.8782C77.9009 8.32547 78.6463 9.1082 79.0563 9.66729C79.7645 10.5618 80.0254 11.3073 81.8145 12.0155C82.2245 12.2018 82.9327 12.5746 83.2309 12.8728C84.0881 13.6555 84.6472 14.8109 84.61 15.9664C84.61 17.1219 83.7154 18.2773 83.2309 19.2837C82.8209 20.1782 82.56 21.11 82.5227 22.0791C80.249 19.9546 78.2736 18.9482 76.0745 17.2709C74.4345 16.0409 73.0181 14.55 72.3472 12.6491C72.3099 12.4628 72.2354 12.3137 72.1981 12.1273C72.1609 12.0155 72.1236 11.9037 72.0863 11.7546C71.6763 10.04 71.6018 7.54274 73.6518 6.90911C71.8999 7.20729 71.4154 8.92184 71.4154 10.5618C71.1172 10.1146 70.7818 9.70457 70.3718 9.29457C68.8063 7.80365 66.7563 6.94638 64.6317 6.53638C63.029 6.2382 60.2336 6.35002 60.0845 4.15092C59.9727 2.51092 62.5445 0.908188 63.9608 1.80273C62.619 0.572733 60.1217 1.9891 59.5626 3.44274C59.3763 3.96456 59.4136 4.59819 59.6372 5.12001C56.6926 2.92092 51.2881 6.20092 49.1263 8.62366C50.4308 7.28183 52.1454 6.20092 53.8599 5.49274C55.9099 4.59819 58.6681 4.00183 60.159 6.08911C60.7554 6.6482 61.6499 6.83456 62.4327 6.98365C63.5136 7.17002 64.6318 7.28183 65.6754 7.58002C66.719 7.8782 67.7627 8.2882 68.6945 8.84729C69.9245 9.63002 70.8563 10.6737 71.4899 11.9409C71.7136 13.2828 72.2354 14.55 72.9809 15.6682C71.6763 15.4446 70.3718 16.1155 69.589 17.1219C70.4836 16.19 71.9372 15.5564 73.2045 16.1155C73.5399 16.6 73.9499 16.9728 74.3599 17.3828C76.8945 20.0664 79.3918 21.1846 82.0381 24.1664C80.2863 24.0919 79.9881 24.2782 78.0872 22.3773C77.379 21.6691 76.7081 21.0355 75.8136 20.6255C74.3599 19.9546 72.6827 19.7682 71.1172 20.1037C70.2972 19.8428 69.5518 19.2837 68.9181 18.6873C67.539 17.3455 66.6072 15.6309 65.5263 14.0282C64.4827 12.5 62.9545 11.1955 61.2027 10.5991C60.979 10.5246 60.7554 10.45 60.5317 10.4127C59.3017 9.5182 58.4445 8.25093 58.8917 6.6482C58.4072 8.10184 59.0408 9.33184 60.0472 10.3009C58.8545 10.1518 57.6245 10.1891 56.5063 9.63002C57.8108 10.7109 59.5254 10.1891 61.0163 10.9346C62.5445 11.7173 63.9236 12.5373 64.8554 13.9537C66.2718 16.1528 67.7254 19.3955 70.1108 20.3646C67.7999 21.2219 66.6072 23.16 66.719 25.1355C66.8308 26.9619 68.0236 28.341 69.4772 29.2728C67.6881 27.931 66.4208 25.9182 67.2781 23.6446C67.949 21.8555 70.1108 20.9609 71.8999 20.7373C72.2354 20.7373 72.8318 20.7 73.1299 20.7373C74.2854 20.8864 75.4409 21.2964 76.2981 22.0791C77.1927 22.8991 77.8636 23.9428 78.87 24.651C80.0627 25.5082 81.2927 25.471 82.0381 25.5455C79.8018 26.5146 77.5654 29.4219 77.789 31.3228C77.6027 28.7882 80.8827 26.1419 82.709 25.6573H82.7463C83.1563 25.8064 83.5291 25.9928 83.9018 26.2164C83.9763 26.3282 84.0509 26.4028 84.1254 26.5146C85.7281 28.6391 88.0391 30.2046 89.2691 32.6273C90.4245 34.901 90.4245 37.5473 89.3809 39.8955C88.5609 41.7592 87.2191 43.1755 85.5418 44.1446C86.1754 42.5792 85.9518 40.6037 84.7591 39.411C84.4981 39.1501 84.2372 38.8892 83.9018 38.6282C83.8645 37.6964 86.1754 36.951 86.9209 35.2364C87.5545 33.7828 88.1509 31.0619 86.3245 30.2046C88.0018 31.211 87.1445 33.7828 86.3618 35.1246C85.9891 35.9073 85.0572 36.3546 84.3863 36.8019C83.9018 37.1373 83.3427 37.5473 83.1191 38.1064C81.7772 37.2492 80.1372 36.7646 78.87 37.5846C80.7336 36.8019 82.97 38.5164 84.0509 39.9328C84.61 40.6782 84.8336 41.6846 84.7218 42.6164C84.61 43.6228 84.1254 44.331 83.3427 44.9273C83.0818 45.1137 82.8209 45.2628 82.56 45.4492C78.9072 46.6419 74.8072 47.1637 72.1981 50.1455C72.1981 43.4737 75.9254 44.331 78.609 44.1819C80.249 44.0701 83.2309 45.4492 83.3054 43.4737C83.1191 44.8155 81.4791 44.1446 80.2118 43.8837C80.9945 43.6601 81.6281 43.3246 82.8209 41.9828C82.3736 42.3928 81.889 42.8028 81.3672 43.1383C80.6218 43.5855 79.7645 43.6973 78.9072 43.6973C77.9381 43.6973 76.9318 43.3992 75.8881 43.4364C74.2854 42.9146 72.8318 40.9019 73.8754 39.2619C72.5709 40.7155 73.6145 42.6537 74.9936 43.6601C73.5027 43.921 72.3845 44.8901 71.6763 46.2319C70.6699 42.281 68.6572 41.4983 71.4527 36.8019C73.0927 35.7582 75.739 36.5782 77.8263 36.0192C79.3918 35.5719 80.8827 34.4164 81.9263 33.1864C82.8581 32.1055 83.4545 30.8382 83.5291 29.3846C83.2681 32.2546 80.6218 34.6773 77.9754 35.5719C76.4472 36.0564 73.8381 35.4228 72.0118 35.9073C73.3909 33.7082 74.7327 31.621 74.3227 27.4464C74.2109 30.8755 73.2418 32.7391 71.9745 34.5655C71.9745 32.5528 70.7818 30.9501 68.9927 30.0928C70.7445 31.6582 71.5645 33.5592 70.8563 35.7955C70.5954 36.6528 70.1854 36.9882 69.6636 38.1064C69.7008 35.2364 67.7254 33.7455 66.2718 31.5837C65.5636 30.5401 64.8927 29.4591 64.1472 28.4155C63.4017 27.3719 62.6563 26.3282 62.0599 25.1728C61.799 24.6882 61.5754 24.1664 61.389 23.6446C60.569 21.3337 60.2336 18.0164 60.3081 17.2337C60.3454 16.7118 60.6436 15.8546 61.0908 15.1091C59.749 16.3391 60.0845 18.7619 60.1217 19.4328C58.109 15.8918 57.4008 15.6309 56.0963 14.8482C55.9845 14.5128 55.7608 12.5 54.4936 10.5991C54.0836 10.0027 53.9345 9.85366 53.3754 9.36911C52.9281 9.03366 52.0708 8.47456 51.6235 8.21365C51.7726 8.40002 51.9217 8.58638 52.1081 8.77275C50.6545 8.40002 49.089 8.77275 47.6726 9.40638C46.7408 9.81638 45.6972 10.4873 45.2126 11.4191C44.8399 12.2018 44.8772 13.1337 44.3926 13.8791C44.9517 13.1337 44.8772 12.1273 45.3617 11.3446C45.8835 10.5246 46.8526 9.96548 47.7099 9.63002C49.3499 8.95911 51.2135 8.62365 52.779 9.5182C53.3381 10.0773 54.1581 10.8973 54.5681 11.68C53.2263 10.6737 51.0272 10.2637 49.0145 11.3073C47.7099 11.9782 46.7035 12.8728 46.0326 14.1028C45.0635 14.6246 44.1317 15.0718 43.6099 16.0782C43.1626 16.9355 43.0881 17.9046 43.1253 18.8737C43.1626 17.9046 43.3117 16.8982 43.8708 16.0409C44.4299 15.2209 45.2126 14.6991 46.1072 14.3264C45.5108 15.4446 45.0635 16.6746 44.7653 17.8673C45.5854 15.4818 46.6663 13.0218 48.9772 11.7173C50.0581 11.1209 51.139 11.0091 52.3317 11.1582C53.3381 11.27 54.1954 11.9409 54.9408 12.5746C55.2763 13.0964 55.4999 14.14 55.3881 14.6618C54.8663 14.4382 52.5554 13.1337 49.909 14.5128C50.0208 14.4382 52.5181 13.9909 54.8663 14.8482C57.1399 15.7055 58.6681 17.7555 59.2272 19.06C59.2645 19.2837 60.4945 24.1291 62.2836 27.0364C63.439 28.9373 65.3399 31.4346 65.5636 31.8073C64.2217 31.0991 62.9917 31.1364 61.6127 30.5401C59.5626 29.6082 57.6245 28.3037 55.9472 26.85C52.4435 23.7937 54.4563 19.9919 56.7672 19.0973C54.7917 19.7682 53.2263 22.4519 53.599 24.2782C52.8535 23.3464 52.2199 22.3773 51.6608 21.3709C51.549 21.1846 51.3999 20.7 51.3254 20.5137C50.7663 19.0973 50.3935 17.3828 50.8035 15.8546C50.319 17.3082 50.4681 18.7619 50.9154 20.1409C49.8344 19.5819 48.7535 20.3646 48.1199 21.4082C47.0017 23.2719 47.7472 25.1355 48.8654 26.7382C49.3126 27.3719 49.8345 27.9682 50.3935 28.4901C51.4745 29.4964 52.5926 30.5401 53.599 31.621C54.6054 32.7391 56.3945 34.7519 54.9408 36.1682C56.3199 34.9382 55.0899 33.1119 54.1954 31.9564C54.1581 31.8819 54.0835 31.8073 54.009 31.7328C55.2017 32.2173 56.9908 33.4101 57.8108 32.1055C56.7672 33.3728 54.7917 31.6582 53.7108 31.2482C52.6299 29.9437 51.3626 28.9001 50.2072 27.7073C48.9772 26.44 47.6726 24.5391 48.0826 22.7128C48.3808 21.3337 49.7972 19.6564 51.139 20.8864C52.2572 23.2719 53.7481 25.2473 55.5745 27.1855C57.1399 28.8255 59.1154 30.0928 61.1281 31.0991C62.9172 31.9937 65.079 31.9564 66.5699 33.3728C67.2781 34.3046 68.0981 35.0501 68.4708 36.1682C68.8063 37.0628 68.9181 39.001 68.8436 39.9328C68.6199 40.7528 69.0299 42.3928 69.0672 42.5792C68.7318 42.3183 68.359 42.0573 67.949 41.8337C67.5763 41.6101 67.2036 41.461 66.8308 41.2746C66.7936 41.2746 66.7936 41.2746 66.7936 41.2746C65.4518 40.7901 63.7745 37.3237 65.1536 36.0192C63.7745 37.1373 64.7063 39.3737 65.4517 40.7901C64.0354 40.3428 62.5445 40.0819 61.0908 39.821C62.4699 40.3428 63.8863 40.7528 65.2654 41.3119C63.1408 41.6101 60.6436 42.8028 58.9663 41.0137C57.7736 39.7464 57.8854 37.5473 59.0781 36.2428C59.6745 35.6092 60.3081 35.0501 60.9045 34.4537C61.2399 34.1182 61.6126 33.8946 62.0226 33.7082C61.7245 33.8201 60.569 34.3792 60.3081 34.6028C59.1154 35.6092 57.1772 36.5782 57.5499 39.2619C55.3881 37.9573 51.959 38.9637 50.5054 40.8646C51.959 39.1501 54.5308 38.7773 56.059 39.0755C54.9781 39.4855 54.3445 40.6782 54.3817 41.8337C54.4935 40.641 55.4254 39.1873 56.7672 39.3364C57.1026 39.4855 57.4008 39.5973 57.6617 39.8582C57.7736 40.2682 57.9599 40.641 58.1836 40.9764C60.0845 43.921 63.5508 41.871 66.309 41.7219C67.5018 42.281 68.5827 42.9146 69.4772 43.921C70.3345 46.1574 70.2972 45.7101 70.5954 48.3937C69.6263 47.1637 68.3963 46.4183 66.9427 45.8219C65.1908 45.1137 64.1845 45.2255 62.619 45.5237C61.8736 45.5983 60.7554 45.6728 60.1217 45.5237C58.1836 45.0392 57.0281 44.3683 56.4317 42.4673C56.5808 43.2501 56.8045 43.8837 57.3636 44.4428C58.1836 45.3374 59.5254 45.8964 60.7181 46.1574C57.6245 47.7601 55.0899 50.7419 51.5117 48.6919C49.6108 47.5364 52.8535 45.5237 53.8972 45.1137C52.779 45.4492 50.3935 46.7537 50.5799 48.0955C48.4181 46.2319 47.2254 42.5792 48.4926 39.5601C48.679 39.1128 49.0517 38.4792 49.3872 38.0692C49.7226 37.6592 50.2072 36.9882 50.6172 36.6528C50.9899 36.3546 51.3254 35.9819 51.7354 35.7582C51.8099 35.721 51.9963 35.5346 52.1081 35.4228C51.8845 35.6092 51.2135 35.9819 51.1017 36.0564C50.729 36.3173 50.319 36.6155 49.9463 36.9137C49.7972 37.0255 49.6108 37.1746 49.4617 37.2864C49.7972 33.9692 47.449 30.8755 45.7717 28.1546C44.7654 26.5146 43.6099 24.7255 43.2744 22.7873C43.1253 21.8928 43.1626 21.0355 43.4608 20.1409C43.6844 19.4328 44.1317 18.8737 44.6163 18.3519C44.1317 18.8737 43.6472 19.4328 43.3863 20.1409C43.0508 21.0355 43.0135 21.8928 43.1253 22.8246C43.3863 24.7255 44.4299 26.5519 45.3617 28.1919C47.039 31.0991 49.5363 34.8264 48.4554 38.3673C46.0699 42.1319 47.7844 48.3937 52.0708 49.7355C51.6981 49.8474 49.3126 51.6364 46.5917 49.5492C45.0635 48.3564 44.6163 47.9092 43.3863 46.3437C43.0508 45.6728 42.8272 44.8155 42.9017 44.1073C42.9763 43.1755 43.1999 42.281 43.5353 41.4237C43.8335 40.641 44.2808 39.8955 44.5417 39.1128C45.1008 37.3982 44.8399 35.6091 44.169 33.9691C43.7217 32.8882 42.7153 30.9501 41.2617 31.5091C42.7899 31.2482 43.7217 33.671 43.9826 34.7892C44.2063 35.6464 44.3181 36.5037 44.2435 37.361C43.6472 36.541 42.2681 35.8701 41.3735 36.4292C42.3799 35.9446 43.8708 37.0628 44.0944 38.1064C44.0199 38.5537 43.9826 38.591 43.7963 39.0382C43.4608 39.7837 43.0135 40.5664 42.7899 41.3119C42.529 42.0946 42.3426 42.9146 42.3053 43.7346C42.2681 44.3683 42.3053 45.3374 42.4917 45.9337C41.6717 45.3374 40.6653 44.8901 40.1435 43.9955C39.5099 42.9146 39.1744 40.8273 39.2862 39.5601C39.5099 38.8519 39.9944 37.8082 40.4417 37.2119C39.9944 37.6219 39.6217 38.0319 39.2862 38.5537C39.2117 37.1373 39.3608 35.4228 39.5472 34.0064C39.7708 32.6646 40.1435 30.6891 40.6653 29.4219C41.0753 28.3782 41.6344 27.2228 42.2681 26.291C41.6717 27.1482 41.1499 28.0428 40.7026 28.9746C40.7026 28.9001 40.7026 28.8255 40.7026 28.751C40.6653 28.4155 40.5535 28.08 40.4417 27.7446C40.1808 26.9991 39.9199 26.291 39.9199 25.5082C39.9199 24.6882 40.069 23.9428 40.5163 23.2346C40.8144 22.75 41.1872 22.3028 41.3735 21.7809C41.1126 22.3773 40.6653 22.8246 40.3299 23.3464C39.9199 23.98 39.7335 24.7255 39.7335 25.471C39.6962 26.291 39.9199 26.9991 40.1435 27.7446C40.2553 28.08 40.3299 28.4155 40.3299 28.751C40.3299 28.9 40.479 29.3473 40.3672 29.4591C39.8826 30.5401 39.659 31.6955 39.3981 32.851C38.5781 30.3164 36.9753 27.931 37.7208 25.21C38.5408 22.2282 40.6653 19.9919 42.1563 17.3455C40.5163 19.9919 38.0935 22.1537 37.2362 25.2473C36.3417 28.49 38.6153 31.211 39.0253 34.3046C38.7644 35.9819 38.8017 37.7337 38.8762 39.4855C38.5408 40.7155 38.7644 42.0573 39.2117 43.2501C39.6963 44.4428 39.9572 44.9273 40.9635 45.7101C41.7463 46.3064 41.9326 46.4555 42.7526 47.0146C43.7963 48.3192 46.1817 50.2201 47.6726 50.9283C48.3063 51.2264 48.9399 51.3755 49.5735 51.3755C51.1763 51.3383 51.6981 50.2946 53.5245 50.1083C54.5308 50.6301 55.6863 50.9283 56.7672 51.2264C62.619 53.0901 64.1845 50.1455 68.0608 50.3692C68.3963 50.8537 68.6945 51.4128 68.9554 51.9719C67.7254 51.5992 66.0108 51.711 65.3027 51.9719C64.3708 52.3074 63.4763 52.3819 62.4699 52.6055C60.4945 53.0155 59.4136 52.941 57.4381 52.5683C55.7981 52.2328 54.009 51.8601 52.6672 50.7792C55.1272 52.9783 58.8172 53.6492 62.0226 53.4255C63.6999 53.3137 67.6508 52.1583 69.0672 53.8728C71.0054 56.2583 71.6018 59.2028 71.8999 61.961C72.049 63.4519 71.3036 67.4028 70.1854 69.1174C68.9927 70.981 66.8308 72.5838 65.1908 73.6274C63.2154 74.8201 53.8972 79.7774 50.0954 80.9701C47.5608 81.7529 41.1126 83.8401 36.1926 81.4174C37.6462 82.7592 39.249 82.871 40.8144 83.281C39.8826 83.8029 37.9072 85.7038 32.5771 84.8465C33.1362 84.9583 34.9626 85.8156 36.7144 85.8156C35.5217 86.9338 34.9253 88.6483 34.0308 89.9156C37.3481 85.182 41.7835 83.7283 43.1253 83.4674C44.4672 83.2065 46.7781 82.9829 48.0081 82.7965C47.4863 83.281 46.9272 84.8092 39.1744 87.9774C41.8953 87.5674 44.1317 86.8965 45.0263 86.1138C44.6908 86.8965 44.2063 88.7974 43.7217 89.8038C47.5608 81.6783 53.1145 81.4547 54.3072 80.9701C53.6735 81.7529 52.8908 82.5356 52.5181 83.5047C52.0708 84.1383 50.2817 86.1883 48.6044 87.0083C49.8717 86.412 51.3254 85.6665 52.3317 84.9583C52.1826 85.7783 52.1826 86.6729 52.4435 87.5301C52.1826 86.5611 52.6672 85.1447 53.0772 84.2129C54.3817 82.0138 56.879 79.9265 58.0717 79.3674C58.9663 78.9574 59.8236 78.5474 60.6808 78.1374C60.3081 78.6219 60.0099 79.181 59.7863 79.7401C59.4508 80.5601 59.5254 81.5292 59.5626 82.4983C59.9726 89.1329 53.1517 90.6238 49.6481 90.0274C50.6172 90.1765 51.5117 90.5492 52.8535 90.6238C53.9345 90.6983 54.7917 90.5865 55.4999 90.4001C55.2763 90.8474 54.829 93.8665 50.5426 94.0529C52.7045 94.7238 54.0835 93.9783 54.9035 93.2329C55.0526 94.3138 56.0217 95.022 56.6181 96.1774C53.9345 90.7729 57.4008 89.5056 58.5936 88.3874C59.7117 87.3438 60.2708 85.9274 60.569 84.772C60.979 85.4056 61.5008 86.0392 62.1717 86.5983C62.7308 87.0829 64.7808 89.1702 64.4081 91.332C64.1845 92.5992 62.8427 94.3883 61.7245 94.8356C63.2527 94.2392 64.7436 93.0465 65.0045 91.332C65.2281 89.9902 64.8927 89.1702 64.4454 87.9774C68.2845 89.4683 70.8563 88.3874 70.8936 88.4247C70.8563 88.4247 68.9181 88.8347 65.079 87.3438C61.9481 86.1138 60.6436 83.2065 60.979 81.082C61.2772 81.4547 62.2836 81.9765 63.2154 82.051C62.5817 81.8647 62.1345 81.3429 61.799 80.8583C60.2708 78.8456 63.6627 76.3856 66.0481 75.5283C65.9736 76.311 65.9736 77.4292 66.2718 78.4729C66.9427 80.672 67.9118 83.5047 66.309 84.2874C68.1354 83.4301 68.5454 82.6101 67.539 79.852C68.5827 80.5229 73.0927 84.6601 72.5336 87.5301C73.0181 85.0701 71.9745 82.6101 70.8563 81.082C70.8936 81.082 70.9309 81.082 70.9309 81.082C72.869 81.082 73.9499 79.9265 74.6209 78.4729C73.9872 79.8892 71.6763 80.001 70.3718 79.8892C69.0672 79.7774 67.6508 79.1065 67.3899 77.9883C66.719 75.1929 68.3963 74.1492 69.8499 73.3292C71.2663 72.5465 72.6454 71.7638 73.9872 70.981C74.7327 71.9501 75.9254 72.9192 77.6772 74.0747C78.4972 74.5965 79.7272 75.1928 80.8454 75.7147C82.6718 77.3919 82.1872 78.9947 81.8518 79.9265C80.7709 82.8338 73.6518 81.5665 77.9381 77.6901C77.1181 78.1001 75.8136 78.9574 75.8881 80.0383C76.0372 82.7592 79.1681 82.461 79.6527 82.461C77.6772 84.1756 75.3663 86.6729 76.969 90.3256C76.41 86.822 77.8636 85.7411 79.5409 84.3247C78.7581 86.2256 79.839 88.3501 82.3363 89.3192C78.7581 87.6047 80.9945 83.2438 81.479 82.6847C81.889 82.2374 84.0509 80.5229 83.6409 77.3919C87.3309 78.771 90.0518 85.3311 85.0945 86.9338C89.0454 86.5238 88.71 83.952 88.7845 83.5047C91.17 89.5429 85.6536 94.0156 84.0509 94.4256C85.9891 93.9411 90.1636 91.8911 90.5363 86.9338C92.3627 89.3938 93.3691 92.7856 100.935 94.6492C94.3382 92.8601 91.3936 86.822 90.5363 84.772C91.2072 85.2565 91.99 85.6292 92.9963 85.6292C94.04 85.6292 94.5245 85.0329 95.0836 84.8465C92.6609 85.592 90.0145 83.8774 87.9272 79.2929C89.94 80.1874 92.1018 80.3365 94.3754 81.4174C97.5809 82.9829 98.8482 87.5301 97.2827 89.1702C98.6991 87.7165 98.7364 86.1883 98.3636 84.8838C100.749 87.0829 102.315 91.4438 101.681 94.202C102.575 91.5556 102.091 90.0274 101.42 88.5365C102.874 89.7292 104.775 90.6611 108.315 91.4811C104.514 90.6238 102.687 88.5738 101.383 87.0083C101.905 87.1574 102.464 87.232 103.172 87.232C103.582 87.232 104.402 87.1574 105.035 86.7847C102.426 86.9711 101.42 86.7474 96.8354 81.902C97.3945 82.0138 100.153 82.312 101.532 82.722C104.551 83.6165 109.993 86.002 111.409 91.2202C111.185 89.3192 111.036 88.6111 110.44 87.5674C111.335 87.9774 115.807 89.7665 117 87.8283C114.987 89.3192 107.384 84.6601 105.52 82.7965Z" fill="#59CB00"/>
<path fill-rule="evenodd" clip-rule="evenodd" d="M7.82729 58.9979C7.5291 58.2897 7.15637 57.7307 6.63455 57.3579C6.11274 56.9852 5.33001 56.7616 4.2491 56.7616C3.65273 56.7616 3.13091 56.8361 2.72091 56.9852C2.31091 57.1343 1.90091 57.3952 1.56546 57.7679C1.23 58.1407 0.969092 58.6625 0.782728 59.3334C0.596364 60.0043 0.521818 60.8616 0.521818 61.8679V63.657C0.521818 64.6634 0.596364 65.5207 0.782728 66.1916C0.969092 66.8625 1.19273 67.4216 1.56546 67.757C1.90091 68.1298 2.27364 68.3907 2.72091 68.5398C3.13091 68.7634 3.65273 68.8379 4.2491 68.8379C5.33001 68.8379 6.22456 68.6143 6.85819 68.1298C7.49183 67.6452 7.82729 67.1607 7.82729 66.6016V63.5452H5.59092V62.9861H8.49819V66.4525C8.49819 67.2725 8.12547 67.9807 7.38001 68.5398C6.63455 69.0989 5.59092 69.397 4.2491 69.397C2.75819 69.397 1.67728 68.9498 1.00636 68.0179C0.335455 67.0861 0 65.6698 0 63.7316V61.9425C0 60.0043 0.335455 58.5507 1.00636 57.6188C1.67728 56.687 2.75819 56.2397 4.2491 56.2397C5.44183 56.2397 6.37365 56.4634 6.93274 56.9107C7.5291 57.3579 7.97638 57.9916 8.31183 58.8116L7.82729 58.9979Z" fill="black"/>
<path fill-rule="evenodd" clip-rule="evenodd" d="M13.0709 68.6542H18.1027L15.9036 62.5787L16.9473 61.9824C17.8046 61.5351 18.2146 60.7896 18.2146 59.7833C18.2146 57.8823 16.7609 56.9505 13.8909 56.9505H12.2136V69.2133H11.6545V56.4287H13.8909C15.4936 56.4287 16.7236 56.7269 17.5436 57.3233C18.3636 57.9196 18.7736 58.7396 18.7736 59.8205C18.7736 61.0505 18.2518 61.9451 17.2455 62.5042L16.5746 62.8024L18.8855 69.176H13.0709V68.6542Z" fill="black"/>
<path fill-rule="evenodd" clip-rule="evenodd" d="M28.7914 68.0179C28.1205 68.9125 27.0396 69.397 25.5487 69.397C24.0577 69.397 22.9768 68.9498 22.3059 68.0179C21.635 67.0861 21.2996 65.6698 21.2996 63.7316V61.9425C21.2996 60.0043 21.635 58.5507 22.3059 57.6188C22.9768 56.687 24.0577 56.2397 25.5487 56.2397C27.0396 56.2397 28.1205 56.687 28.7914 57.6188C29.4623 58.5507 29.7978 59.967 29.7978 61.9425V63.7316C29.7978 65.6325 29.4623 67.0861 28.7914 68.0179ZM27.0768 56.9852C26.6668 56.8361 26.145 56.7616 25.5487 56.7616C24.9523 56.7616 24.4305 56.8361 24.0205 56.9852C23.6105 57.1343 23.2005 57.3952 22.865 57.7679C22.5296 58.1407 22.2687 58.6625 22.0823 59.3334C21.9332 60.0416 21.8214 60.8988 21.8214 61.9052V63.6943C21.8214 64.7007 21.8959 65.5579 22.0823 66.2289C22.2687 66.8998 22.4923 67.4589 22.865 67.7943C23.2005 68.167 23.5732 68.4279 24.0205 68.577C24.4305 68.7634 24.9523 68.8379 25.5487 68.8379C26.145 68.8379 26.6668 68.7634 27.0768 68.6143C27.4868 68.4652 27.8968 68.2043 28.2323 67.8316C28.5678 67.4589 28.8287 66.937 29.015 66.2661C29.1641 65.5579 29.2759 64.7007 29.2759 63.6943V61.9052C29.2759 60.8988 29.2014 60.0416 29.015 59.3707C28.8287 58.6625 28.605 58.1407 28.2323 57.8052C27.8968 57.3952 27.5241 57.1343 27.0768 56.9852Z" fill="black"/>
<path fill-rule="evenodd" clip-rule="evenodd" d="M34.3598 56.4072H41.3671V63.7127C41.3671 65.6509 41.0316 67.1045 40.3607 67.9991C39.6898 68.9309 38.6089 69.3782 37.118 69.3782C35.6271 69.3782 34.5462 68.9309 33.8753 67.9991C33.2043 67.0672 32.8689 65.6509 32.8689 63.7127V56.4072H33.428V63.7127C33.428 64.7191 33.5025 65.5763 33.6889 66.2472C33.8753 66.9181 34.0989 67.4772 34.4344 67.8127C34.7698 68.1854 35.1425 68.4463 35.5898 68.5954C35.9998 68.7445 36.5216 68.8191 37.118 68.8191C37.7144 68.8191 38.2362 68.7445 38.6462 68.5954C39.0562 68.4463 39.4662 68.1854 39.8016 67.8127C40.1371 67.44 40.398 66.9181 40.5844 66.2472C40.7335 65.5763 40.8453 64.7191 40.8453 63.7127V56.9663H34.3598V56.4072Z" fill="black"/>
<path fill-rule="evenodd" clip-rule="evenodd" d="M49.3457 63.0633L49.0848 62.5787L50.1284 61.9824C50.9484 61.5351 51.3584 60.7896 51.3584 59.7833C51.3584 57.8823 49.9048 56.9505 47.0348 56.9505H45.3948V69.2133H44.8357V56.4287H47.0721C48.6748 56.4287 49.9048 56.7269 50.7248 57.3233C51.5448 57.9196 51.9548 58.7396 51.9548 59.8205C51.9548 61.0505 51.433 61.9451 50.4266 62.5042L49.3457 63.0633Z" fill="black"/>
<path fill-rule="evenodd" clip-rule="evenodd" d="M67.4526 56.3916V56.9507H63.1289V69.2134H62.5698V56.9507H58.2834V56.3916H67.4526Z" fill="black"/>
<path fill-rule="evenodd" clip-rule="evenodd" d="M81.864 68.6454H89.0577V57.6872L84.9577 66.5208L80.8577 57.6872V69.2045H80.2986V56.4199H80.8577L84.9577 65.2163L89.0577 56.4199H89.6168V69.2418H81.864V68.6454Z" fill="black"/>
</svg>
