<svg width="117" height="97" fill="none" xmlns="http://www.w3.org/2000/svg"><path fill-rule="evenodd" clip-rule="evenodd" d="M59.376 51.376c-.857 0-1.677-.224-2.497-.448-1.118-.298-2.31-.484-3.392-.932.447-.037 1.006.038 2.05-.26 1.678.521 2.907.708 5.256.223 1.453-.298 2.87-.335 4.36-.484.485-.038 1.342.074 1.715.149-2.31.223-4.174 1.826-7.492 1.752zM57.55 48.99c1.155.224 2.31.373 3.466.41-2.236.485-3.056.634-4.994.261.522-.186 1.006-.41 1.528-.67zm2.274-1.267c1.043.522 1.565.782 2.46 1.043-1.454.038-2.684.038-4.026-.149.522-.298.932-.521 1.566-.894zm1.528-.82c2.199-.298 3.95.41 5.33 1.826-.858-.149-1.528-.112-1.678-.112-2.758-.298-2.385-.074-4.882-1.118.447-.186.82-.41 1.23-.596zm44.168 35.893c3.392.336 6.411-1.304 6.709-1.64-.074.075-1.864 1.79-13.12-.484-6.56-1.342-12.635-4.473-15.356-6.001-.41-.298-2.46-1.752-3.653-2.535-1.342-.894-2.274-1.64-3.168-3.466-.56-1.193-.298-5.032-.298-6.373.037-6.411-3.169-8.722-2.423-11.294.484-1.752 4.063-1.976 5.852-2.907.186-.112 3.913-1.342 4.659-1.64 2.422-1.007 4.398-2.61 5.665-4.92.708-1.305 1.044-2.125 1.193-3.579 1.64-1.528 4.063-2.273 6.038-3.056 2.572-1.006 8.647-3.317 9.803-4.026 2.199-1.341 3.019-2.609 3.578-4.584.373-1.342.298-3.094.336-4.473.037-1.379-.075-2.758-.634-4.025-.522-1.193-1.454-2.162-2.348-3.057-.746-.745-1.566-1.528-2.535-2.012.708.521 1.305 1.23 1.901 1.9.82.932 1.715 1.976 2.236 3.132.56 1.23.634 2.571.634 3.913 0 1.38 0 2.907-.298 4.25-.373 1.64-1.342 2.832-2.609 3.764.112-.336.186-.708.223-1.081a7.018 7.018 0 00-.335-2.758c-.41-1.156.82-2.61 1.901-2.945-1.006.186-2.013 1.118-2.274 2.162-.335-.671-.745-1.267-1.267-1.752.932 1.267 1.603 2.87 1.565 4.436 0 .745.038 1.602-.41 2.236-.484.708-2.571 1.64-4.025 2.087 1.23-1.155 1.528-3.28.895-4.36 0-1.268.186-2.162 1.528-2.535-1.193.223-1.678.894-1.864 2.087-.522-.634-1.304-1.23-1.789-.596.708-.485 1.454.894 1.677 1.565.149.857-.074 2.087-.559 2.796-1.006 1.528-3.578 2.385-5.218 2.87-2.274.633-3.802 1.08-6.076 2.273 0-.074.075-.522.075-.559.857-1.193 2.348-2.124 3.504-2.982.074-.074 2.124-1.342 2.46-2.87.26-1.23 1.23-2.236 2.162-3.056 2.422-2.087 6.448-3.28 6.82-7.417.932-.56 2.125-.299 2.721.41-.372-1.007-1.714-1.342-2.683-1.044-.038-1.714-.708-3.578-2.162-5.144-.261-.857-.149-1.975.149-2.832-.224.186-.373.447-.522.745-.969-2.05-4.137-3.653-6.41-3.69 1.527.112 2.944.783 4.174 1.677-1.118.038-2.386-.186-3.28-.745.969.783 2.534 1.118 3.764 1.155.671.56 1.268 1.193 1.529 2.05-.075.299-.075.634-.112.97-1.901-1.678-4.138-2.46-7.38-3.951-.075-.373-.224-.634-.224-1.044 0-1.342 2.833-2.572 3.876-2.87-1.826.373-2.981.969-3.615 1.528.075-.745-.186-1.379-.783-1.938-.82-.746-1.863-1.193-2.87-1.677-1.826-.895-3.839-.299-5.777-.261 1.826.037 3.69-.41 5.405.335 1.006.447 2.087 1.007 2.907 1.752.67.634.969 1.342.67 2.236-.335.448-.447.97-.447 1.529-2.05-.97-2.609-1.454-5.367-3.206.15-.26.857-.298 1.156-.224.484.112.931.448 1.267.82-.783-1.267-2.2-1.379-2.684-.782-3.503-2.237-7.23-4.175-12.076-3.951-.224 0-.447.037-.634.037C75.292.983 73.54-.135 71.527.014c-1.789.111-3.392 1.006-4.994 1.677C68.135 1.095 69.775.275 71.49.237c1.64-.037 3.094.746 4.622 1.156-1.528.41-2.87 1.304-3.206 2.982.746-1.64 2.237-2.311 3.951-2.535 2.684-.335 5.48.224 7.977 1.267 2.609 1.118 4.92 2.796 7.268 4.324 1.23.783 2.422 1.565 3.764 2.162 1.268.596 2.572 1.118 3.802 1.714 2.013.932 4.1 2.162 5.218 4.175 1.156 2.124 1.305 4.547-.298 6.485-1.453 1.752-3.615 2.349-5.255 3.84-.41-.336-.41-.895-.373-1.417.075-1.23.67-2.087.895-3.28.111-.522.037-1.044 0-1.565-.038-.448 0-.932-.075-1.38-.224-2.72-.26-4.435 1.565-4.808-1.453.187-1.826 1.305-1.938 2.721-.484-2.46-1.341-4.286-3.392-5.777-1.08-.783-2.46-1.044-3.764-1.193-.485-.037-.932-.112-1.416-.112-.97-.074-3.355-.969-2.684-2.348-.596.97.447 1.864 1.49 2.348a15.524 15.524 0 01-1.304-.149c-.633-.074-2.497-.074-2.87-.633.522.708 2.162.82 2.758.969.634.149.746.149 1.417.186.522.037 1.267-.074 1.789.037 1.267.224 2.87.41 3.95 1.156 1.007.708 1.976 1.565 2.498 2.646.522 1.193 1.454 4.25 1.416 5.815 0 .186.075 1.416.038 1.602-.187 1.268-1.23 2.61-1.267 3.914-.038.746-.038 1.64.484 2.013-.82.894-1.08 1.64-1.677 2.683-.112-.745-.336-1.453-.783-2.05-.186-.484-.41-1.006-.336-1.528.112-.596.373-1.006.82-1.416.82-.783 1.491-1.416 1.603-2.572-.074.522-.26.932-.596 1.38-.336.447-.895.782-1.305 1.155-.782.67-.969 1.453-.82 2.348-1.043-.895-2.497-1.38-3.802-1.603 1.305.298 3.131 1.267 4.1 2.311.299.522.82 1.64.82 2.46-.037 1.081-1.341 1.677-2.273 2.348-.82.597-1.864 1.342-2.647 2.2 0-.038 0-.075-.037-.112.522-4.212-3.317-8.946-.037-12.636 1.64-1.826 4.36-3.876 2.87-6.634-.447-.82-1.118-1.268-1.9-1.491-.672-.522-1.305-1.193-1.268-2.125-.15.745.149 1.416.596 2.013-1.304-.224-2.795-.15-3.95-.522 1.155.485 2.944.485 4.286.857.708.224 1.453.597 1.863 1.305 1.417 2.646-1.379 4.51-2.944 6.224-2.982 3.206-1.081 6.933-.41 10.66-.932-1.752-2.349-3.168-3.802-4.584-1.007-.97-2.013-1.976-2.572-3.243-.596-1.267-.596-2.61-.112-3.95.261-.746.671-1.492.97-2.237.037-.037.037-.075.074-.075 1.379-.745 2.795-1.08 4.323-1.304-1.453.111-2.981.298-4.286 1.006.15-.41.224-.82.261-1.23.075-1.267-.522-2.535-1.379-3.43a4.788 4.788 0 00-1.491-1.08c-.112-.037-1.08-.298-1.155-.335-.858-.485-1.529-1.193-2.162-1.939-.037-.633-.112-1.379.112-1.975.298-.746 1.155-1.006 1.863-1.156 1.491-.372 3.02-.223 4.473.112-1.566-.447-3.206-.633-4.808-.26-.15.037-.298.074-.41.111.596-.82.596-1.938-.634-2.31.634.26 1.081.707.857 1.416-.223.67-1.118 1.08-1.602 1.938-.187.335-.224 1.118-.224 1.528-.634-.783-1.416-1.416-2.162-2.05-1.08-.895-2.46-1.677-3.876-1.79-1.976-.148-6.71.485-7.94-1.453.299.783 1.119 1.193 1.976 1.454-.67.82-2.385.298-3.205.037 1.006.485 2.832 1.193 3.653.112 2.497.56 4.547.112 6 .41.709.15 1.417.485 2.05.895.671.447 1.305.931 1.864 1.453.522.447 1.267 1.23 1.677 1.79.709.894.97 1.64 2.758 2.348.41.186 1.119.559 1.417.857.857.783 1.416 1.938 1.379 3.093 0 1.156-.895 2.311-1.38 3.318-.41.894-.67 1.826-.707 2.795-2.274-2.124-4.25-3.13-6.448-4.808-1.64-1.23-3.057-2.721-3.728-4.622-.037-.186-.112-.335-.149-.522-.037-.112-.074-.223-.112-.372-.41-1.715-.484-4.212 1.566-4.846-1.752.298-2.237 2.013-2.237 3.653a8.188 8.188 0 00-1.043-1.267c-1.566-1.491-3.616-2.349-5.74-2.759-1.603-.298-4.398-.186-4.548-2.385-.111-1.64 2.46-3.243 3.877-2.348-1.342-1.23-3.84.186-4.398 1.64-.187.522-.15 1.155.074 1.677-2.944-2.2-8.349 1.08-10.51 3.504C50.43 7.282 52.144 6.2 53.86 5.493c2.05-.895 4.808-1.491 6.299.596.596.56 1.49.746 2.274.895 1.08.186 2.199.298 3.242.596 1.044.298 2.088.708 3.02 1.267a7.696 7.696 0 012.795 3.094 9.571 9.571 0 001.49 3.727c-1.304-.223-2.608.448-3.391 1.454.895-.932 2.348-1.566 3.615-1.006.336.484.746.857 1.156 1.267 2.534 2.683 5.032 3.802 7.678 6.783-1.752-.074-2.05.112-3.95-1.789-.709-.708-1.38-1.341-2.274-1.752a7.54 7.54 0 00-4.697-.521c-.82-.261-1.565-.82-2.199-1.417-1.379-1.341-2.31-3.056-3.392-4.659-1.043-1.528-2.571-2.833-4.323-3.429-.224-.074-.448-.149-.671-.186-1.23-.895-2.087-2.162-1.64-3.765-.485 1.454.149 2.684 1.155 3.653-1.192-.15-2.422-.112-3.54-.671 1.304 1.08 3.018.56 4.51 1.305 1.527.782 2.907 1.602 3.838 3.019 1.417 2.199 2.87 5.441 5.256 6.41-2.311.858-3.504 2.796-3.392 4.771.112 1.827 1.305 3.206 2.758 4.138-1.789-1.342-3.056-3.355-2.199-5.628.671-1.79 2.833-2.684 4.622-2.908.335 0 .932-.037 1.23 0 1.155.15 2.31.56 3.168 1.342.895.82 1.566 1.864 2.572 2.572 1.193.857 2.423.82 3.168.895-2.236.969-4.473 3.876-4.249 5.777-.186-2.535 3.094-5.181 4.92-5.666h.037c.41.15.783.336 1.156.56.074.111.149.186.223.298 1.603 2.124 3.914 3.69 5.144 6.112 1.155 2.274 1.155 4.92.112 7.268-.82 1.864-2.162 3.28-3.84 4.25.634-1.566.41-3.541-.782-4.734-.26-.26-.522-.522-.857-.783-.037-.932 2.273-1.677 3.019-3.392.633-1.453 1.23-4.174-.597-5.031 1.678 1.006.82 3.578.038 4.92-.373.782-1.305 1.23-1.976 1.677-.484.335-1.043.745-1.267 1.304-1.342-.857-2.982-1.341-4.249-.521 1.864-.783 4.1.931 5.18 2.348.56.745.784 1.752.672 2.683-.112 1.007-.597 1.715-1.38 2.311-.26.187-.521.336-.782.522-3.653 1.193-7.753 1.715-10.362 4.697 0-6.672 3.727-5.815 6.411-5.964 1.64-.112 4.622 1.267 4.696-.708-.186 1.342-1.826.67-3.093.41.782-.224 1.416-.56 2.609-1.901-.447.41-.932.82-1.454 1.155-.745.448-1.603.56-2.46.56-.969 0-1.975-.299-3.019-.262-1.603-.521-3.056-2.534-2.013-4.174-1.304 1.453-.26 3.392 1.119 4.398-1.491.261-2.61 1.23-3.318 2.572-1.006-3.951-3.019-4.734-.223-9.43 1.64-1.044 4.286-.224 6.373-.783 1.566-.447 3.057-1.603 4.1-2.833.932-1.08 1.528-2.348 1.603-3.801-.26 2.87-2.907 5.292-5.554 6.187-1.528.484-4.137-.15-5.963.335 1.379-2.199 2.72-4.286 2.31-8.46-.111 3.428-1.08 5.292-2.347 7.119 0-2.013-1.193-3.616-2.982-4.473 1.752 1.565 2.572 3.466 1.863 5.702-.26.858-.67 1.193-1.192 2.311.037-2.87-1.939-4.36-3.392-6.522-.708-1.044-1.38-2.125-2.125-3.168-.745-1.044-1.49-2.088-2.087-3.243a11.18 11.18 0 01-.671-1.528c-.82-2.311-1.155-5.629-1.08-6.411.036-.522.335-1.38.782-2.125-1.342 1.23-1.007 3.653-.97 4.324-2.012-3.541-2.72-3.802-4.025-4.585-.111-.335-.335-2.348-1.602-4.249-.41-.596-.56-.745-1.119-1.23a23.6 23.6 0 00-1.752-1.155c.15.186.299.372.485.559-1.453-.373-3.019 0-4.435.633-.932.41-1.976 1.081-2.46 2.013-.373.783-.336 1.715-.82 2.46.559-.745.484-1.752.969-2.534.521-.82 1.49-1.38 2.348-1.715 1.64-.67 3.504-1.006 5.069-.112.56.56 1.38 1.38 1.79 2.162-1.343-1.006-3.542-1.416-5.555-.373-1.304.671-2.31 1.566-2.981 2.796-.97.522-1.901.969-2.423 1.975-.447.858-.522 1.827-.485 2.796.038-.97.187-1.976.746-2.833.559-.82 1.342-1.342 2.236-1.715a15.714 15.714 0 00-1.342 3.541c.82-2.385 1.901-4.845 4.212-6.15 1.081-.596 2.162-.708 3.355-.559 1.006.112 1.863.783 2.609 1.417.335.521.559 1.565.447 2.087-.522-.224-2.833-1.528-5.479-.15.112-.074 2.61-.521 4.957.336 2.274.857 3.802 2.908 4.361 4.212.038.224 1.268 5.07 3.057 7.976 1.155 1.901 3.056 4.399 3.28 4.771-1.342-.708-2.572-.67-3.951-1.267-2.05-.932-3.989-2.236-5.666-3.69-3.504-3.056-1.49-6.858.82-7.753-1.975.671-3.54 3.355-3.168 5.181-.745-.932-1.38-1.9-1.938-2.907-.112-.186-.261-.671-.336-.857-.559-1.417-.931-3.131-.522-4.66-.484 1.454-.335 2.908.112 4.287-1.08-.56-2.161.224-2.795 1.267-1.118 1.864-.373 3.727.745 5.33.448.634.97 1.23 1.529 1.752 1.08 1.006 2.199 2.05 3.205 3.131 1.006 1.118 2.796 3.13 1.342 4.547 1.379-1.23.149-3.056-.746-4.212a.99.99 0 00-.186-.223c1.193.484 2.982 1.677 3.802.372-1.044 1.268-3.02-.447-4.1-.857-1.081-1.304-2.348-2.348-3.504-3.54-1.23-1.268-2.534-3.169-2.124-4.995.298-1.38 1.714-3.057 3.056-1.827 1.118 2.386 2.61 4.361 4.435 6.3 1.566 1.64 3.541 2.907 5.554 3.913 1.79.895 3.951.857 5.442 2.274.708.932 1.528 1.677 1.9 2.795.336.895.448 2.833.374 3.765-.224.82.186 2.46.223 2.646a8.323 8.323 0 00-1.118-.745c-.373-.224-.745-.373-1.118-.56h-.037c-1.342-.484-3.02-3.95-1.64-5.255-1.38 1.118-.448 3.355.298 4.771-1.417-.447-2.907-.708-4.361-.969 1.379.522 2.795.932 4.174 1.49-2.124.3-4.621 1.492-6.299-.297-1.192-1.268-1.08-3.467.112-4.771.596-.634 1.23-1.193 1.826-1.79.336-.335.709-.558 1.119-.745-.299.112-1.454.671-1.715.895-1.193 1.006-3.13 1.975-2.758 4.659-2.162-1.305-5.591-.298-7.045 1.603 1.454-1.715 4.026-2.088 5.554-1.79-1.08.41-1.715 1.603-1.677 2.759.111-1.193 1.043-2.647 2.385-2.498.336.15.634.261.895.522.112.41.298.783.522 1.118 1.9 2.945 5.367.895 8.125.746 1.193.559 2.274 1.193 3.168 2.199.858 2.236.82 1.79 1.118 4.473-.969-1.23-2.199-1.976-3.652-2.572-1.752-.708-2.758-.597-4.324-.298-.745.074-1.864.149-2.497 0-1.938-.485-3.094-1.156-3.69-3.057.149.783.372 1.417.932 1.976.82.894 2.161 1.453 3.354 1.714-3.094 1.603-5.628 4.585-9.206 2.535-1.901-1.156 1.341-3.168 2.385-3.578-1.118.335-3.503 1.64-3.317 2.982-2.162-1.864-3.355-5.517-2.087-8.536a6.88 6.88 0 01.894-1.49c.336-.41.82-1.082 1.23-1.417.373-.298.708-.671 1.118-.895.075-.037.261-.223.373-.335-.223.186-.894.559-1.006.633-.373.261-.783.56-1.156.858-.149.111-.335.26-.484.372.335-3.317-2.013-6.41-3.69-9.131-1.007-1.64-2.162-3.43-2.498-5.368-.149-.894-.111-1.752.187-2.646.223-.708.67-1.267 1.155-1.79-.484.523-.969 1.082-1.23 1.79-.335.895-.373 1.752-.26 2.684.26 1.9 1.304 3.727 2.236 5.367 1.677 2.907 4.174 6.634 3.093 10.175-2.385 3.765-.67 10.027 3.616 11.369-.373.111-2.758 1.9-5.48-.187-1.528-1.193-1.975-1.64-3.205-3.205-.335-.671-.559-1.529-.484-2.237a9.405 9.405 0 01.633-2.683c.299-.783.746-1.529 1.007-2.311.559-1.715.298-3.504-.373-5.144-.447-1.08-1.454-3.019-2.907-2.46 1.528-.26 2.46 2.162 2.72 3.28.224.857.336 1.715.261 2.572-.596-.82-1.975-1.49-2.87-.932 1.007-.484 2.498.634 2.721 1.677-.074.448-.111.485-.298.932-.335.746-.782 1.528-1.006 2.274-.261.783-.447 1.603-.485 2.423-.037.633 0 1.602.187 2.199-.82-.597-1.827-1.044-2.348-1.938-.634-1.081-.97-3.169-.858-4.436.224-.708.708-1.752 1.156-2.348-.448.41-.82.82-1.156 1.342-.074-1.417.075-3.131.261-4.548.224-1.341.597-3.317 1.118-4.584.41-1.044.97-2.2 1.603-3.131a19.37 19.37 0 00-1.565 2.684v-.224c-.038-.335-.15-.671-.261-1.006-.261-.746-.522-1.454-.522-2.237 0-.82.149-1.565.596-2.273.298-.485.671-.932.858-1.454-.261.596-.709 1.044-1.044 1.565-.41.634-.596 1.38-.596 2.125-.038.82.186 1.528.41 2.274.111.335.186.67.186 1.006 0 .149.149.596.037.708-.484 1.081-.708 2.236-.969 3.392-.82-2.535-2.423-4.92-1.677-7.641.82-2.982 2.944-5.218 4.435-7.864-1.64 2.646-4.063 4.808-4.92 7.901-.894 3.243 1.38 5.964 1.79 9.058-.262 1.677-.224 3.429-.15 5.18-.335 1.23-.112 2.572.336 3.765.484 1.193.745 1.677 1.752 2.46.782.596.969.745 1.789 1.305 1.043 1.304 3.429 3.205 4.92 3.913a4.432 4.432 0 001.9.448c1.603-.038 2.125-1.081 3.952-1.268 1.006.522 2.161.82 3.242 1.118 5.852 1.864 7.417-1.08 11.294-.857.335.485.633 1.044.894 1.603-1.23-.373-2.944-.261-3.652 0-.932.335-1.827.41-2.833.633-1.975.41-3.056.336-5.032-.037-1.64-.335-3.429-.708-4.77-1.789 2.46 2.2 6.15 2.87 9.355 2.646 1.677-.111 5.628-1.267 7.044.448 1.938 2.385 2.535 5.33 2.833 8.088.149 1.49-.596 5.442-1.715 7.156-1.192 1.864-3.354 3.467-4.994 4.51-1.976 1.193-11.294 6.15-15.096 7.343-2.534.783-8.982 2.87-13.902.447 1.453 1.342 3.056 1.454 4.621 1.864-.931.522-2.907 2.423-8.237 1.566.56.111 2.386.969 4.137.969-1.192 1.118-1.789 2.832-2.683 4.1 3.317-4.734 7.752-6.188 9.094-6.449 1.342-.26 3.653-.484 4.883-.67-.522.484-1.08 2.012-8.834 5.18 2.721-.41 4.958-1.08 5.852-1.863-.335.782-.82 2.683-1.304 3.69 3.839-8.126 9.392-8.35 10.585-8.834-.634.783-1.416 1.566-1.789 2.535-.447.633-2.236 2.683-3.914 3.503 1.268-.596 2.721-1.341 3.728-2.05-.15.82-.15 1.715.111 2.572-.26-.969.224-2.385.634-3.317 1.305-2.2 3.802-4.286 4.995-4.846.894-.41 1.752-.82 2.609-1.23a6.773 6.773 0 00-.895 1.603c-.335.82-.26 1.79-.223 2.758.41 6.635-6.411 8.126-9.915 7.53.97.148 1.864.521 3.205.596 1.081.074 1.939-.037 2.647-.224-.224.447-.671 3.466-4.957 3.653 2.162.67 3.54-.075 4.36-.82.15 1.08 1.119 1.789 1.715 2.944-2.684-5.404.783-6.671 1.976-7.79 1.118-1.043 1.677-2.46 1.975-3.615a8.06 8.06 0 001.603 1.826c.559.485 2.609 2.572 2.236 4.734-.224 1.267-1.565 3.056-2.684 3.504 1.529-.597 3.02-1.79 3.28-3.504.224-1.342-.111-2.162-.559-3.355 3.84 1.491 6.411.41 6.449.448-.038 0-1.976.41-5.815-1.081-3.13-1.23-4.435-4.137-4.1-6.262.298.373 1.305.895 2.236.969-.633-.186-1.08-.708-1.416-1.193-1.528-2.012 1.864-4.472 4.25-5.33-.075.783-.075 1.901.223 2.945.67 2.199 1.64 5.032.037 5.814 1.826-.857 2.236-1.677 1.23-4.435 1.044.67 5.554 4.808 4.995 7.678.484-2.46-.56-4.92-1.678-6.448h.075c1.938 0 3.019-1.155 3.69-2.61-.634 1.417-2.945 1.529-4.25 1.417-1.304-.112-2.72-.782-2.981-1.9-.671-2.796 1.006-3.84 2.46-4.66a204.368 204.368 0 004.137-2.348c.746.97 1.938 1.938 3.69 3.094.82.522 2.05 1.118 3.168 1.64 1.827 1.677 1.342 3.28 1.007 4.212-1.081 2.907-8.2 1.64-3.914-2.237-.82.41-2.124 1.267-2.05 2.348.15 2.721 3.28 2.423 3.765 2.423-1.976 1.715-4.287 4.212-2.684 7.865-.559-3.504.895-4.585 2.572-6.001-.783 1.9.298 4.025 2.795 4.994-3.578-1.714-1.341-6.075-.857-6.634.41-.448 2.572-2.162 2.162-5.293 3.69 1.379 6.41 7.94 1.453 9.542 3.951-.41 3.616-2.982 3.69-3.43 2.386 6.039-3.13 10.512-4.733 10.922 1.938-.485 6.113-2.535 6.485-7.492 1.827 2.46 2.833 5.852 10.399 7.715-6.597-1.789-9.541-7.827-10.399-9.877.671.484 1.454.857 2.46.857 1.044 0 1.529-.596 2.088-.782-2.423.745-5.07-.97-7.157-5.554 2.013.894 4.175 1.043 6.448 2.124 3.206 1.566 4.473 6.113 2.908 7.753 1.416-1.454 1.453-2.982 1.08-4.286 2.386 2.199 3.952 6.56 3.318 9.318.894-2.646.41-4.175-.261-5.665 1.454 1.192 3.355 2.124 6.895 2.944-3.801-.857-5.628-2.907-6.932-4.473.522.15 1.081.224 1.789.224.41 0 1.23-.075 1.863-.447-2.609.186-3.615-.038-8.2-4.883.56.112 3.318.41 4.697.82 3.019.895 8.461 3.28 9.877 8.498-.224-1.9-.373-2.609-.969-3.653.895.41 5.367 2.2 6.56.261-2.013 1.491-9.616-3.168-11.48-5.032z" fill="#59CB00"/><path fill-rule="evenodd" clip-rule="evenodd" d="M7.827 58.998c-.298-.708-.67-1.267-1.192-1.64-.522-.373-1.305-.596-2.386-.596-.596 0-1.118.074-1.528.223a2.9 2.9 0 00-1.156.783c-.335.373-.596.895-.782 1.565-.187.671-.261 1.529-.261 2.535v1.789c0 1.006.074 1.864.26 2.535.187.67.41 1.23.783 1.565.336.373.709.634 1.156.783.41.223.932.298 1.528.298 1.081 0 1.976-.224 2.61-.708.633-.485.968-.97.968-1.528v-3.057H5.591v-.559h2.907v3.467c0 .82-.373 1.528-1.118 2.087-.745.559-1.79.857-3.13.857-1.492 0-2.573-.447-3.244-1.38C.336 67.088 0 65.67 0 63.733v-1.79c0-1.938.335-3.391 1.006-4.323.671-.932 1.752-1.38 3.243-1.38 1.193 0 2.125.224 2.684.672.596.447 1.043 1.08 1.379 1.9l-.485.187zm5.243 9.656h5.033l-2.2-6.075 1.044-.597c.858-.447 1.268-1.192 1.268-2.199 0-1.9-1.454-2.833-4.324-2.833h-1.677v12.263h-.56V56.43h2.237c1.603 0 2.833.298 3.653.894.82.597 1.23 1.417 1.23 2.498 0 1.23-.522 2.124-1.529 2.683l-.67.298 2.31 6.374h-5.814v-.522zm15.721-.636c-.67.894-1.751 1.379-3.242 1.379s-2.572-.447-3.243-1.38c-.671-.93-1.006-2.347-1.006-4.285v-1.79c0-1.938.335-3.391 1.006-4.323.67-.932 1.752-1.38 3.243-1.38 1.49 0 2.572.448 3.242 1.38.671.932 1.007 2.348 1.007 4.324v1.789c0 1.9-.336 3.354-1.007 4.286zm-1.714-11.033c-.41-.149-.932-.223-1.528-.223-.597 0-1.119.074-1.529.223a2.9 2.9 0 00-1.155.783c-.335.373-.596.895-.783 1.565-.149.709-.26 1.566-.26 2.572v1.79c0 1.006.074 1.863.26 2.534.187.67.41 1.23.783 1.565.336.373.708.634 1.155.783.41.186.932.26 1.529.26.596 0 1.118-.074 1.528-.223a2.9 2.9 0 001.155-.782c.336-.373.597-.895.783-1.566.15-.708.26-1.565.26-2.572v-1.789c0-1.006-.074-1.863-.26-2.534-.186-.709-.41-1.23-.783-1.566-.335-.41-.708-.67-1.155-.82zm7.283-.578h7.007v7.306c0 1.938-.335 3.392-1.006 4.286-.671.932-1.752 1.38-3.243 1.38-1.49 0-2.572-.448-3.243-1.38-.67-.932-1.006-2.348-1.006-4.286v-7.306h.559v7.306c0 1.006.075 1.863.26 2.534.187.671.41 1.23.746 1.566.336.372.709.633 1.156.782.41.15.932.224 1.528.224s1.118-.075 1.528-.224a2.9 2.9 0 001.156-.782c.335-.373.596-.895.782-1.566.15-.67.261-1.528.261-2.534v-6.747H34.36v-.559zm14.986 6.656l-.261-.484 1.043-.597c.82-.447 1.23-1.192 1.23-2.199 0-1.9-1.453-2.833-4.323-2.833h-1.64v12.263h-.56V56.43h2.237c1.603 0 2.833.298 3.653.894.82.597 1.23 1.417 1.23 2.498 0 1.23-.522 2.124-1.528 2.683l-1.081.56zm18.107-6.671v.559h-4.324v12.262h-.56V56.951h-4.286v-.56h9.17zm14.411 12.253h7.194V57.687l-4.1 8.834-4.1-8.834v11.517h-.56V56.42h.56l4.1 8.796 4.1-8.796h.559v12.822h-7.753v-.597z" fill="#000"/></svg>